<svg xmlns="http://www.w3.org/2000/svg" width="32" height="32" fill="none"><path fill="#307796" fill-rule="evenodd" d="M16 23.362c-1.03-.835-1.72-2.369-1.72-4.121 0-1.752.69-3.286 1.72-4.121 1.03.835 1.721 2.369 1.721 4.12 0 1.753-.692 3.287-1.721 4.122z" clip-rule="evenodd"/><path fill="#00B1CE" fill-rule="evenodd" d="M16.316 6.927c1.164.88 2.149 2.054 2.875 3.433H32V6.927H16.316zm-.634 0H0v3.433h12.809c.725-1.379 1.709-2.553 2.873-3.433z" clip-rule="evenodd"/><path fill="#00A3BA" fill-rule="evenodd" d="M12.157 11.83H0v3.434h11.461c.07-1.21.312-2.364.696-3.433zm7.685 0c.385 1.07.626 2.225.696 3.434H32V11.83H19.842z" clip-rule="evenodd"/><path fill="#208DA6" fill-rule="evenodd" d="M11.461 16.735H0v3.433h12.157a12.21 12.21 0 01-.696-3.433zm9.077 0a12.239 12.239 0 01-.696 3.433H32v-3.433H20.538z" clip-rule="evenodd"/><path fill="#307796" fill-rule="evenodd" d="M12.809 21.64H0v3.433h15.682c-1.165-.88-2.147-2.054-2.873-3.433zm6.381 0c-.726 1.38-1.71 2.553-2.874 3.433H32V21.64H19.19z" clip-rule="evenodd"/></svg>