<svg width="130" height="78" viewBox="0 0 130 78" fill="none" xmlns="http://www.w3.org/2000/svg">
<path fill-rule="evenodd" clip-rule="evenodd" d="M7.50133 60.4905C8.02904 60.4905 8.44217 60.3646 8.74024 60.089C9.03924 59.814 9.19952 59.4697 9.19952 59.0568C9.19952 58.5977 9.03924 58.2305 8.74024 57.9787C8.44217 57.726 8.02904 57.5889 7.52452 57.5889H5.29838V60.4905H7.50133ZM7.20302 54.2849C7.59295 54.2849 7.93742 54.1701 8.21345 53.9406C8.48833 53.711 8.62635 53.4131 8.62635 53.0456C8.62635 52.7013 8.48833 52.4032 8.21345 52.1739C7.93742 51.9444 7.59295 51.8303 7.20302 51.8303H5.29838V54.2849H7.20302ZM8.12159 48.1367H8.07543C8.80983 48.1367 9.47556 48.2506 10.0719 48.4799C10.669 48.7096 11.197 49.0317 11.633 49.4202C12.0691 49.8109 12.4136 50.27 12.6432 50.7974C12.872 51.3251 12.9877 51.8757 12.9877 52.4727C12.9877 52.8393 12.9415 53.1834 12.8267 53.527C12.7117 53.8722 12.5739 54.1701 12.3904 54.4451C12.2072 54.7207 12.023 54.9503 11.8172 55.1566C11.6098 55.3632 11.4034 55.5009 11.197 55.5927V55.6159C11.5876 55.7297 11.9311 55.9138 12.2533 56.1656C12.5739 56.4183 12.8497 56.7163 13.0793 57.0606C13.309 57.4046 13.4925 57.7721 13.6073 58.1618C13.7221 58.5516 13.7905 58.9191 13.7905 59.2865C13.7905 59.951 13.6757 60.5712 13.447 61.167C13.2173 61.7641 12.872 62.2917 12.4136 62.7506C11.9543 63.2099 11.3579 63.553 10.6238 63.8057C9.88845 64.0584 8.99308 64.1732 7.96061 64.1732H0.890625V48.1367H8.12159Z" fill="#175875"/>
<path fill-rule="evenodd" clip-rule="evenodd" d="M19.5986 57.7712C19.7819 58.2532 20.0347 58.6659 20.356 59.0095C20.6772 59.3547 21.0672 59.6297 21.5274 59.8128C21.9857 59.9962 22.5134 60.0876 23.0878 60.0876C23.6619 60.0876 24.1896 59.9962 24.6489 59.8128C25.1073 59.6297 25.4981 59.3547 25.8191 59.0095C26.1406 58.6659 26.3933 58.2532 26.5535 57.7712C26.7138 57.2899 26.8064 56.7392 26.8064 56.1422C26.8064 54.9491 26.4851 53.9858 25.8191 53.2518C25.1534 52.518 24.2358 52.1505 23.0644 52.1505C21.8941 52.1505 20.9755 52.518 20.3096 53.2518C19.6448 53.9858 19.3235 54.9491 19.3235 56.1422C19.3235 56.7392 19.4151 57.2899 19.5986 57.7712ZM14.6641 56.1886C14.6641 54.9723 14.8937 53.8488 15.3289 52.8159C15.765 51.783 16.3623 50.8881 17.1196 50.154C17.8772 49.42 18.7726 48.8464 19.7819 48.4335C20.7923 48.0206 21.8709 47.8145 23.0191 47.8145C24.1664 47.8145 25.2453 48.0206 26.2555 48.4335C27.2657 48.8464 28.1601 49.42 28.9186 50.154C29.676 50.8881 30.2724 51.7598 30.7085 52.7927C31.1445 53.8247 31.3742 54.9491 31.3742 56.1652C31.3742 57.3814 31.1677 58.5059 30.7307 59.5369C30.2956 60.5698 29.6983 61.4418 28.9407 62.1756C28.1833 62.9106 27.2889 63.4844 26.2775 63.8971C25.2682 64.2868 24.1896 64.4931 23.0414 64.4931C21.8941 64.4931 20.8152 64.2868 19.806 63.8971C18.7958 63.4844 17.9234 62.9106 17.1651 62.1756C16.4077 61.4418 15.7826 60.5587 15.375 59.5149C14.6566 57.6738 14.6641 56.1886 14.6641 56.1886Z" fill="#175875"/>
<path fill-rule="evenodd" clip-rule="evenodd" d="M37.8026 55.313H40.2813C40.5342 55.313 40.7638 55.2696 40.9471 55.1778C41.1306 55.0862 41.2683 54.9485 41.3834 54.7883C41.4973 54.6272 41.5667 54.4663 41.613 54.284C41.6592 54.0997 41.6815 53.9386 41.6815 53.7786C41.6815 53.6407 41.6592 53.4807 41.613 53.2973C41.5667 53.1132 41.4973 52.9518 41.4066 52.7919C41.3147 52.6319 41.1767 52.4939 40.9935 52.3792C40.8091 52.2644 40.5797 52.218 40.3045 52.218H37.8026V55.313ZM42.0259 64.2173L39.2027 59.2391H37.7562V64.2408H33.3496V48.2031H39.6388C40.6713 48.2031 41.5898 48.3411 42.4159 48.6158C43.2428 48.8919 43.9306 49.2812 44.5049 49.7635C45.0788 50.2459 45.5151 50.8418 45.8132 51.5306C46.1113 52.218 46.2725 52.9753 46.2725 53.8238C46.2725 54.9028 46.0428 55.8203 45.5604 56.6004C45.0788 57.3797 44.3899 57.9999 43.4945 58.4357L46.9614 64.2173H42.0259Z" fill="#175875"/>
<path fill-rule="evenodd" clip-rule="evenodd" d="M55.8679 60.0653L55.8447 60.0418C56.3504 60.0418 56.8329 59.9505 57.2912 59.7903C57.7505 59.6292 58.1411 59.3764 58.4847 59.0563C58.8291 58.7345 59.1042 58.3215 59.3107 57.8402C59.5181 57.358 59.6329 56.8073 59.6329 56.1881C59.6329 55.5681 59.5403 55.0175 59.3339 54.5361C59.1284 54.0539 58.8523 53.6412 58.5079 53.2978C58.1634 52.9536 57.7735 52.6777 57.3142 52.4945C56.8549 52.3104 56.3956 52.2186 55.9143 52.2186H53.2288V60.0653H55.8679ZM55.8911 48.0898C55.8911 48.0898 57.5893 48.0917 59.082 48.7082C60.082 49.1218 60.9646 49.6493 61.721 50.3603C62.4786 51.0719 63.0757 51.9207 63.5118 52.9072C63.9478 53.8939 64.1777 54.9952 64.1777 56.2103C64.1777 57.4266 63.9713 58.5279 63.5349 59.5144C63.0989 60.5011 62.5016 61.3274 61.7442 62.0153C60.9866 62.7039 60.0912 63.2314 59.082 63.5989C58.0718 63.9652 56.9929 64.1495 55.8447 64.1495H48.7988V48.0898H55.8911Z" fill="#175875"/>
<path fill-rule="evenodd" clip-rule="evenodd" d="M78.2731 60.0664V64.1729H66.1992V48.1133H78.1349V52.2198H70.6067V54.2162H76.4601V58.07H70.6067V60.0664H78.2731Z" fill="#175875"/>
<path fill-rule="evenodd" clip-rule="evenodd" d="M89.5493 58.2766L87.9197 53.4583L86.3584 58.2766H89.5493ZM90.8114 62.1081H85.0047L84.2925 64.1732H79.5645L85.8075 48.1133H90.0086L96.2746 64.1732H91.5235L90.8114 62.1081Z" fill="#175875"/>
<path fill-rule="evenodd" clip-rule="evenodd" d="M111.443 48.1133V56.9001C111.443 58.1166 111.26 59.1947 110.915 60.1351C110.571 61.0761 110.066 61.8786 109.423 62.521C108.78 63.1632 108.022 63.6455 107.128 63.9657C106.232 64.2645 105.269 64.4257 104.213 64.4257C103.134 64.4257 102.147 64.2645 101.251 63.9657C100.356 63.6455 99.5987 63.1632 98.9571 62.521C98.3134 61.8786 97.8089 61.0761 97.4644 60.1351C97.12 59.1947 96.9355 58.1166 96.9355 56.9001V48.1133H101.343V56.7853C101.343 58.07 101.596 58.9872 102.078 59.5378C102.56 60.0887 103.271 60.3646 104.19 60.3646C105.108 60.3646 105.819 60.0887 106.302 59.5378C106.784 58.9872 107.036 58.07 107.036 56.7853V48.1133H111.443Z" fill="#175875"/>
<path fill-rule="evenodd" clip-rule="evenodd" d="M120.374 59.7905L117.757 64.1727H112.523L117.689 56.0504L112.684 48.1353H117.987L120.328 52.4493L122.692 48.1133H127.971L122.99 56.0281L128.132 64.1727H122.899L120.374 59.7905Z" fill="#175875"/>
<path fill-rule="evenodd" clip-rule="evenodd" d="M37.7799 36.1505L37.8483 45.4879H34.0842V44.7078V44.5014H34.061C33.8082 44.7541 33.5101 44.9605 33.1657 45.1216C32.8221 45.2816 32.4777 45.4195 32.1332 45.5111C31.7887 45.6259 31.4443 45.6945 31.1007 45.7407C30.7553 45.7861 30.435 45.8093 30.1358 45.8093C28.9887 45.8093 27.9099 45.6029 26.8997 45.2123C25.8904 44.7993 25.017 44.2265 24.2597 43.4917C23.5021 42.7577 22.9057 41.8637 22.4696 40.8308C22.0335 39.7988 21.8262 38.6744 21.8262 37.4583C21.8262 36.2421 22.0567 35.1185 22.4919 34.0856C22.928 33.0537 23.5253 32.1588 24.2827 31.4238C25.0402 30.6898 25.9356 30.1162 26.9458 29.7042C27.9553 29.2906 29.0339 29.084 30.1822 29.084C30.9386 29.084 31.6739 29.1758 32.3851 29.3599C33.0972 29.543 33.763 29.818 34.3825 30.1855C35.0028 30.5527 35.576 31.0118 36.1037 31.5395C36.6326 32.0669 37.0677 32.663 37.4354 33.3287L32.936 34.4983C32.5925 34.155 32.1564 33.8793 31.6284 33.6727C31.1007 33.4664 30.5951 33.3748 30.1137 33.3748C29.5164 33.3748 28.9887 33.4664 28.5294 33.6727C28.0701 33.8793 27.6802 34.155 27.3589 34.5215C27.0374 34.889 26.8069 35.3017 26.6468 35.7839C26.4865 36.2652 26.394 36.7927 26.394 37.3665C26.394 37.9858 26.4865 38.5596 26.6932 39.0639C26.8997 39.5693 27.1745 40.0052 27.5199 40.3495C27.8635 40.6929 28.2766 40.9688 28.7588 41.1519C29.2413 41.3353 29.7693 41.4269 30.3424 41.4269C30.8711 41.4269 31.3294 41.3814 31.6971 41.2899C32.0636 41.1974 32.3851 41.0603 32.6611 40.8992C32.936 40.7392 33.1657 40.5551 33.3498 40.3495C33.5333 40.1422 33.6943 39.9136 33.8082 39.6609H31.8831V36.1505H37.7799Z" fill="#175875"/>
<path fill-rule="evenodd" clip-rule="evenodd" d="M48.6157 39.5928L46.9859 34.7745L45.4248 39.5928H48.6157ZM49.8778 43.4243H44.0711L43.359 45.4893H38.6309L44.8739 29.4297H49.075L55.3412 45.4893H50.5899L49.8778 43.4243Z" fill="#175875"/>
<path fill-rule="evenodd" clip-rule="evenodd" d="M69.8477 33.5125L62.1352 41.4387H69.8477V45.4879H56.1211V41.3821L64.201 33.5125L64.1781 33.4893H56.3507V29.3828H69.8477V33.5125Z" fill="#175875"/>
<path fill-rule="evenodd" clip-rule="evenodd" d="M84.7917 41.3346C84.7917 41.3346 85.4472 41.3587 86.215 41.0596C86.6688 40.882 87.0649 40.646 87.4085 40.3258C87.7532 40.0038 88.029 39.5909 88.2345 39.1095C88.4419 38.6275 88.5567 38.0767 88.5567 37.4576C88.5567 36.8384 88.4641 36.2877 88.2575 35.8055C88.0522 35.3232 87.7761 34.9105 87.4317 34.5672C87.0872 34.2229 86.6975 33.947 86.238 33.7638C85.7789 33.5797 85.3194 33.4879 84.8379 33.4879H82.1527V41.3346H84.7917ZM84.8149 29.3594C84.8149 29.3594 86.6732 29.3462 88.0058 29.9784C88.9835 30.4421 89.8884 30.9188 90.6448 31.6306C91.4022 32.3412 91.9986 33.19 92.4356 34.1765C92.8719 35.1633 93.1013 36.2645 93.1013 37.4799C93.1013 38.6959 92.8951 39.7974 92.459 40.7839C92.0227 41.7714 91.4256 42.597 90.668 43.2847C89.9104 43.9733 89.0151 44.5007 88.0058 44.8682C86.9956 45.2347 85.917 45.4188 84.7685 45.4188H77.7227V29.3594H84.8149Z" fill="#175875"/>
<path fill-rule="evenodd" clip-rule="evenodd" d="M106.818 41.335V45.4415H94.7441V29.3828H106.68V33.4884H99.1519V35.4848H105.005V39.3398H99.1519V41.335H106.818Z" fill="#175875"/>
<path fill-rule="evenodd" clip-rule="evenodd" d="M25.4421 75.9428L25.4337 75.9347C25.6244 75.9347 25.806 75.8995 25.98 75.8394C26.153 75.7782 26.3003 75.6829 26.4309 75.5614C26.5606 75.4404 26.6643 75.2848 26.742 75.1026C26.8209 74.9201 26.8642 74.7119 26.8642 74.4789C26.8642 74.2445 26.829 74.0363 26.7515 73.8548C26.6736 73.6735 26.5689 73.517 26.4393 73.3867C26.3096 73.2571 26.1616 73.1525 25.9883 73.083C25.8151 73.0146 25.6411 72.9793 25.4597 72.9793H24.4449V75.9428H25.4421ZM25.4504 71.4199L25.4337 71.4364C25.867 71.4364 26.2744 71.5059 26.6559 71.6532C27.0375 71.8013 27.3671 72.0084 27.6534 72.2768C27.9394 72.5462 28.1644 72.8673 28.3293 73.2395C28.494 73.6114 28.5801 74.028 28.5801 74.487C28.5801 74.9461 28.5024 75.3625 28.3386 75.7355C28.1737 76.1077 27.9477 76.4207 27.6615 76.6796C27.3755 76.9398 27.0375 77.1387 26.6559 77.2776C26.2744 77.4162 25.867 77.4858 25.4337 77.4858H22.7715V71.4199H25.4504Z" fill="#175875"/>
<path fill-rule="evenodd" clip-rule="evenodd" d="M37.0799 75.9425V77.4936H32.5195V71.4277H37.028V72.979H34.1834V73.7335H36.3956V75.1892H34.1834V75.9425H37.0799Z" fill="#175875"/>
<path fill-rule="evenodd" clip-rule="evenodd" d="M43.7673 74.1149L43.7589 74.1232C43.9756 74.1232 44.1488 74.0715 44.2783 73.9769C44.4089 73.8807 44.4782 73.743 44.4782 73.5605C44.4782 73.3783 44.4172 73.2406 44.2959 73.1358C44.1746 73.0312 44.0006 72.9802 43.7673 72.9802H43.0208V74.1149H43.7673ZM43.7849 71.4375L43.7673 71.4549C44.1488 71.4549 44.4868 71.5059 44.7904 71.6021C45.0932 71.6965 45.3451 71.8363 45.5524 72.0178C45.7607 72.2 45.9266 72.4249 46.0386 72.6851C46.1516 72.9452 46.2119 73.2406 46.2119 73.5691C46.2119 73.8983 46.16 74.1928 46.047 74.4527C45.9349 74.7128 45.7784 74.9389 45.5701 75.1202C45.3618 75.3024 45.1108 75.4404 44.8071 75.5366C44.5042 75.6309 44.1662 75.6745 43.7849 75.6745H43.0125V77.495H41.3477V71.4375H43.7849Z" fill="#175875"/>
<path fill-rule="evenodd" clip-rule="evenodd" d="M55.4994 71.4277V74.7476C55.4994 75.2066 55.4301 75.614 55.3004 75.9694C55.1698 76.3237 54.9791 76.6274 54.7365 76.8699C54.4939 77.1131 54.2078 77.2947 53.8699 77.4168C53.5307 77.5288 53.1668 77.5898 52.7688 77.5898C52.3614 77.5898 51.9882 77.5288 51.6502 77.4168C51.3123 77.2947 51.026 77.1131 50.7825 76.8699C50.5401 76.6274 50.3492 76.3237 50.2195 75.9694C50.0889 75.614 50.0195 75.2066 50.0195 74.7476V71.4277H51.6843V74.7042C51.6843 75.1892 51.7797 75.5354 51.9622 75.7443C52.1436 75.9518 52.4122 76.0554 52.7595 76.0554C53.1067 76.0554 53.3753 75.9518 53.5577 75.7443C53.7393 75.5354 53.8346 75.1892 53.8346 74.7042V71.4277H55.4994Z" fill="#175875"/>
<path fill-rule="evenodd" clip-rule="evenodd" d="M59.6816 77.4945H61.3467V71.4277H59.6816V77.4945Z" fill="#175875"/>
<path fill-rule="evenodd" clip-rule="evenodd" d="M68.5172 73.4215L68.4738 73.5261C68.4311 73.4048 68.3782 73.3003 68.3089 73.214C68.2402 73.1271 68.1616 73.0577 68.0746 73.0049C67.9885 72.9532 67.9013 72.9105 67.8153 72.8839C67.7283 72.8588 67.6413 72.8412 67.5541 72.8412C67.3903 72.8412 67.2678 72.8762 67.1818 72.9448C67.0948 73.0142 67.0523 73.0837 67.0523 73.153C67.0523 73.2309 67.0864 73.3003 67.1477 73.3612C67.2078 73.4215 67.2947 73.4827 67.4079 73.5344C67.5197 73.5864 67.6587 73.639 67.8153 73.6898C67.9709 73.7426 68.1356 73.8029 68.3182 73.8722C68.5429 73.9592 68.7691 74.063 68.9858 74.1757C69.2015 74.2886 69.3922 74.4182 69.5661 74.5655C69.7396 74.7124 69.8783 74.8866 69.983 75.0857C70.0866 75.2856 70.1384 75.5105 70.1384 75.7613C70.1384 76.0481 70.0783 76.3071 69.9653 76.5415C69.8524 76.7757 69.6877 76.9746 69.4708 77.1485C69.2544 77.3217 69.0025 77.4513 68.7079 77.5382C68.4135 77.6335 68.0839 77.6769 67.7283 77.6769C67.0948 77.6769 66.5578 77.5125 66.1066 77.1995C65.6559 76.8793 65.318 76.4202 65.0918 75.8307L66.6872 75.4059C66.7308 75.5021 66.7921 75.5965 66.8614 75.6918C66.9308 75.7871 67.0171 75.874 67.1124 75.9519C67.2078 76.0305 67.3126 76.0908 67.4244 76.1341C67.5374 76.1768 67.668 76.2037 67.806 76.2037C68.0143 76.2037 68.1616 76.1685 68.2486 76.0908C68.3356 76.012 68.3782 75.9259 68.3782 75.8214C68.3782 75.7268 68.3439 75.6482 68.2746 75.58C68.205 75.5105 68.1004 75.4493 67.9709 75.389C67.8403 75.3282 67.6847 75.267 67.5033 75.2067C67.3207 75.1458 67.1215 75.0681 66.9041 74.9812C66.7227 74.9033 66.5402 74.8172 66.3576 74.7208C66.1762 74.6264 66.0113 74.5135 65.864 74.3746C65.716 74.236 65.5956 74.0712 65.5086 73.8803C65.4214 73.6898 65.379 73.4556 65.379 73.1874C65.379 72.9532 65.439 72.7199 65.5522 72.4941C65.665 72.2683 65.8299 72.0703 66.0375 71.8962C66.2456 71.7232 66.4882 71.5844 66.7745 71.4807C67.0607 71.3771 67.3725 71.3242 67.7104 71.3242C68.0059 71.3242 68.2827 71.3678 68.5429 71.4547C68.8032 71.541 69.0375 71.662 69.246 71.8092C69.4532 71.9574 69.6357 72.1306 69.783 72.3302C69.9303 72.5291 70.043 72.7459 70.121 72.9801L68.5172 73.4215Z" fill="#175875"/>
<path fill-rule="evenodd" clip-rule="evenodd" d="M82.0973 71.4277L82.1149 77.4945H80.4499V74.9031V74.5642C80.4499 74.4432 80.4585 74.3309 80.4678 74.2275C80.4761 74.123 80.4761 74.0367 80.4761 73.9674V73.8638H80.4678C80.4585 73.8638 80.4065 73.924 80.3112 74.0367C80.2159 74.1487 80.0945 74.2792 79.9472 74.4265L79.8166 74.557L78.8027 73.577L80.9352 71.4277H82.0973Z" fill="#175875"/>
<path fill-rule="evenodd" clip-rule="evenodd" d="M87.6835 73.0664C87.6835 73.2137 87.7445 73.3347 87.8742 73.43C88.0038 73.5253 88.1604 73.5772 88.3427 73.5772C88.5418 73.5772 88.7067 73.5253 88.828 73.4207C88.9493 73.3171 89.0103 73.196 89.0103 73.0488C89.0103 72.884 88.9493 72.7451 88.8194 72.6415C88.6891 72.5369 88.5334 72.4861 88.3427 72.4861C88.1426 72.4861 87.9871 72.5369 87.8658 72.6415C87.7445 72.7451 87.6835 72.8759 87.6835 73.0312V73.0664ZM87.5882 75.6921C87.5882 75.8734 87.6659 76.0207 87.8132 76.1419C87.9612 76.2641 88.1426 76.3241 88.3511 76.3241C88.5761 76.3241 88.7584 76.2641 88.8974 76.1419C89.0363 76.0207 89.1047 75.8734 89.1047 75.7002C89.1047 75.518 89.0363 75.3624 88.8881 75.2414C88.7417 75.1199 88.5585 75.0592 88.3427 75.0592C88.1261 75.0592 87.9435 75.1199 87.8046 75.2498C87.6659 75.3801 87.5972 75.5273 87.5972 75.7002L87.5882 75.6921ZM89.5649 74.2964H89.539C89.6689 74.3398 89.7983 74.401 89.9289 74.487C90.0595 74.5742 90.1808 74.6776 90.2938 74.8083C90.4058 74.9386 90.4928 75.0849 90.5622 75.2498C90.6308 75.4144 90.6658 75.5957 90.6658 75.7955C90.6658 76.0559 90.6048 76.2982 90.4844 76.524C90.3622 76.7491 90.1984 76.948 89.9899 77.121C89.7816 77.2951 89.539 77.4257 89.253 77.5117C88.9667 77.607 88.654 77.6589 88.3168 77.6589C87.9779 77.6589 87.6659 77.607 87.3796 77.5117C87.0945 77.4257 86.851 77.2859 86.6427 77.1127C86.4342 76.9397 86.2704 76.7398 86.1574 76.515C86.0445 76.2898 85.9844 76.0473 85.9844 75.7874C85.9844 75.5885 86.0185 75.4051 86.0878 75.2414C86.1574 75.0766 86.2444 74.9293 86.3481 74.799C86.4518 74.6694 86.574 74.5649 86.7037 74.4789C86.8334 74.3917 86.9637 74.3307 87.0945 74.2964V74.2881C87.0157 74.2704 86.9287 74.2271 86.8334 74.1575C86.738 74.0891 86.652 73.9927 86.565 73.8809C86.4787 73.7678 86.4093 73.6384 86.3481 73.4903C86.2878 73.343 86.2611 73.1791 86.2611 72.996C86.2611 72.762 86.314 72.5462 86.4177 72.3463C86.5211 72.1474 86.6696 71.9742 86.851 71.827C87.0333 71.68 87.2502 71.5671 87.5019 71.4799C87.7529 71.393 88.0307 71.3496 88.3251 71.3496C88.6287 71.3496 88.9057 71.393 89.1574 71.4799C89.4086 71.5671 89.6253 71.68 89.8076 71.827C89.9899 71.9742 90.1372 72.1474 90.2409 72.3463C90.3457 72.5462 90.3975 72.762 90.3975 72.996C90.3975 73.1791 90.3715 73.343 90.3102 73.4903C90.2502 73.6384 90.1808 73.7678 90.0938 73.8809C90.0068 73.9927 89.9208 74.0891 89.8252 74.1575C89.7296 74.2271 89.6427 74.2704 89.5649 74.2881V74.2964Z" fill="#175875"/>
<path fill-rule="evenodd" clip-rule="evenodd" d="M98.9641 71.4277L98.9558 72.408L96.0945 77.5112H94.3082L95.9637 74.617C96.0769 74.4181 96.1899 74.2275 96.3109 74.0367C96.4325 73.8461 96.5452 73.6732 96.6406 73.5167C96.7361 73.3602 96.8138 73.2306 96.8751 73.1353L96.9704 72.9881L96.9611 72.9788H96.8658H96.6406H96.3546H96.0862H94.2305V71.4277H98.9641Z" fill="#175875"/>
<path fill-rule="evenodd" clip-rule="evenodd" d="M104.307 73.5429L104.299 73.5958C104.341 73.5863 104.411 73.577 104.498 73.5689C104.584 73.5605 104.689 73.5605 104.802 73.5605C105.122 73.5605 105.426 73.6125 105.702 73.7078C105.98 73.803 106.223 73.9419 106.431 74.1149C106.64 74.289 106.803 74.4963 106.926 74.7388C107.047 74.9813 107.107 75.2495 107.107 75.5366C107.107 75.8391 107.047 76.1169 106.934 76.377C106.821 76.6372 106.656 76.8618 106.449 77.0526C106.24 77.2432 105.997 77.3904 105.72 77.495C105.442 77.5894 105.14 77.6422 104.81 77.6422C104.506 77.6422 104.22 77.5986 103.96 77.5115C103.7 77.4338 103.474 77.3209 103.275 77.1829C103.075 77.0443 102.912 76.8797 102.773 76.6979C102.634 76.5157 102.538 76.3334 102.486 76.1521L104.012 75.7522C104.038 75.7967 104.064 75.8391 104.099 75.892C104.134 75.943 104.177 75.9956 104.237 76.0476C104.299 76.0993 104.368 76.1429 104.446 76.1769C104.524 76.2122 104.627 76.2298 104.75 76.2298C104.949 76.2298 105.114 76.1602 105.243 76.0214C105.374 75.8827 105.442 75.7098 105.442 75.5013C105.442 75.2848 105.374 75.1118 105.235 74.9813C105.096 74.8517 104.931 74.7905 104.75 74.7905C104.532 74.7905 104.377 74.8257 104.289 74.9034C104.203 74.9813 104.15 75.0515 104.125 75.1202L102.694 74.7304L103.24 71.4375H106.752V72.9886H104.428C104.377 73.2051 104.341 73.3523 104.325 73.4219C104.307 73.4901 104.299 73.5265 104.299 73.5346L104.307 73.5429Z" fill="#175875"/>
<path fill-rule="evenodd" clip-rule="evenodd" d="M64.663 21.94C63.3566 20.8803 62.4805 18.9348 62.4805 16.7119C62.4805 14.4896 63.3566 12.5442 64.663 11.4844C65.9694 12.5442 66.8467 14.4896 66.8467 16.7119C66.8467 18.9348 65.9694 20.8803 64.663 21.94Z" fill="#307796"/>
<path fill-rule="evenodd" clip-rule="evenodd" d="M65.0645 1.0918C66.5414 2.20884 67.7898 3.698 68.7111 5.4473H106.524V1.0918H65.0645Z" fill="#00B1CE"/>
<path fill-rule="evenodd" clip-rule="evenodd" d="M64.2598 1.0918H22.8027V5.4473H60.6152C61.5356 3.698 62.7829 2.20884 64.2598 1.0918Z" fill="#00B1CE"/>
<path fill-rule="evenodd" clip-rule="evenodd" d="M59.7882 7.3125H22.8027V11.6671H58.9059C58.9947 10.1334 59.3011 8.66858 59.7882 7.3125Z" fill="#00A3BA"/>
<path fill-rule="evenodd" clip-rule="evenodd" d="M69.5371 7.3125C70.0252 8.66858 70.3316 10.1334 70.4204 11.6671H106.523V7.3125H69.5371Z" fill="#00A3BA"/>
<path fill-rule="evenodd" clip-rule="evenodd" d="M58.9059 13.5332H22.8027V17.8878H59.7882C59.3002 16.5329 58.9947 15.0678 58.9059 13.5332Z" fill="#208DA6"/>
<path fill-rule="evenodd" clip-rule="evenodd" d="M70.4197 13.5332C70.3307 15.0678 70.0242 16.5329 69.5371 17.8878H106.524V13.5332H70.4197Z" fill="#208DA6"/>
<path fill-rule="evenodd" clip-rule="evenodd" d="M60.615 19.7559H22.8027V24.1104H64.2596C62.7826 22.9943 61.5363 21.5052 60.615 19.7559Z" fill="#307796"/>
<path fill-rule="evenodd" clip-rule="evenodd" d="M68.7111 19.7559C67.7895 21.5052 66.5414 22.9943 65.0645 24.1104H106.524V19.7559H68.7111Z" fill="#307796"/>
</svg>